<svg width="1160" height="466" viewBox="0 0 1160 466" fill="none" xmlns="http://www.w3.org/2000/svg">
<g filter="url(#filter0_d_3_5)">
<path d="M581.333 279.867C587.644 279.867 592.267 278.089 595.2 274.533C598.133 270.978 599.6 266.756 599.6 261.867V252.533C599.6 246.756 597.733 242.667 594 240.267C590.267 237.778 586.044 236.533 581.333 236.533H570.933V279.867H581.333ZM597.733 189.733C597.733 184.4 596.267 180.711 593.333 178.667C590.4 176.533 586.178 175.467 580.667 175.467H570.933V214H581.733C586.889 214 590.844 212 593.6 208C596.356 203.911 597.733 198.933 597.733 193.067V189.733ZM590.4 307.2C583.467 307.2 574.489 307.022 563.467 306.667C552.444 306.311 544.533 306.089 539.733 306H526.933V149.733H550C555.6 149.733 562 149.556 569.2 149.2C576.4 148.756 581.6 148.533 584.8 148.533C595.2 148.533 603.956 149.378 611.067 151.067C618.267 152.756 623.911 155.289 628 158.667C632.089 162.044 634.978 165.956 636.667 170.4C638.444 174.844 639.333 180.133 639.333 186.267C639.333 195.689 637.156 203.778 632.8 210.533C628.444 217.289 622.133 221.511 613.867 223.2C634.844 225.067 645.333 237.378 645.333 260.133C645.333 266.978 644.311 273.2 642.267 278.8C640.222 284.311 637.067 289.244 632.8 293.6C628.622 297.867 622.933 301.2 615.733 303.6C608.533 306 600.089 307.2 590.4 307.2ZM657.793 306V155.2L649.793 150.4V138L692.593 131.333H701.259V306H657.793ZM776.625 294.133L775.292 295.6C774.403 296.667 773.025 297.911 771.158 299.333C769.381 300.756 767.292 302.178 764.892 303.6C762.581 305.022 759.736 306.222 756.358 307.2C752.981 308.267 749.514 308.8 745.958 308.8C721.958 308.8 709.958 296.933 709.958 273.2C709.958 268.578 710.803 264.356 712.492 260.533C714.181 256.622 716.358 253.333 719.025 250.667C721.692 248 724.892 245.644 728.625 243.6C732.358 241.467 736.092 239.822 739.825 238.667C743.647 237.422 747.647 236.4 751.825 235.6C756.003 234.8 759.736 234.267 763.025 234C766.314 233.733 769.469 233.6 772.492 233.6V231.2C772.492 225.778 771.025 221.956 768.092 219.733C765.247 217.511 760.625 216.4 754.225 216.4C748.714 216.4 742.981 217.067 737.025 218.4C731.069 219.644 726.403 221.156 723.025 222.933L714.492 204.8C720.536 200.889 728.403 197.467 738.092 194.533C747.781 191.511 757.647 190 767.692 190C776.581 190 783.914 190.889 789.692 192.667C795.469 194.356 800.136 197.289 803.692 201.467C807.336 205.556 809.914 210.8 811.425 217.2C812.936 223.511 813.692 231.556 813.692 241.333V295.6L817.425 306H780.892L776.625 294.133ZM766.092 285.333C767.247 285.333 768.314 285.111 769.292 284.667C770.358 284.133 771.158 283.644 771.692 283.2C772.225 282.667 772.492 282.4 772.492 282.4V250.4C767.069 250.4 762.758 251.911 759.558 254.933C756.358 257.867 754.758 262.444 754.758 268.667C754.758 279.778 758.536 285.333 766.092 285.333ZM899.01 306C889.055 306 880.166 303.911 872.344 299.733V306H828.877V155.2L820.877 150.4V138L863.677 131.333H872.344V203.067C873.766 201.467 875.322 199.956 877.01 198.533C878.699 197.111 880.744 195.733 883.144 194.4C885.544 193.067 888.255 192 891.277 191.2C894.388 190.4 897.677 190 901.144 190C915.81 190 926.566 195.022 933.41 205.067C940.344 215.111 943.81 229.022 943.81 246.8C943.81 255.156 942.877 262.889 941.01 270C939.144 277.022 936.388 283.244 932.744 288.667C929.099 294.089 924.388 298.356 918.61 301.467C912.922 304.489 906.388 306 899.01 306ZM879.41 287.467C891.322 287.467 897.277 278.356 897.277 260.133V237.467C897.277 229.822 895.855 223.956 893.01 219.867C890.255 215.689 886.699 213.6 882.344 213.6C879.055 213.6 875.722 214.8 872.344 217.2V286.533C873.677 286.889 874.922 287.156 876.077 287.333C877.233 287.422 878.344 287.467 879.41 287.467ZM1000.76 306H957.697V219.733L949.697 214.8V199.733L978.364 192.667H989.164L993.03 224.4C996.675 202.622 1008.36 191.733 1028.1 191.733C1030.32 191.733 1032.63 192.133 1035.03 192.933L1030.5 240.4C1028.63 238.711 1024.54 237.867 1018.23 237.867C1009.16 237.867 1003.34 240.267 1000.76 245.067V306ZM1100.25 351.867C1091.1 351.867 1082.48 350.533 1074.39 347.867C1066.3 345.2 1060.39 341.6 1056.65 337.067L1063.59 322.667C1068.74 325.6 1076.92 327.067 1088.12 327.067C1091.68 327.067 1094.74 326.667 1097.32 325.867C1099.9 325.067 1102.21 323.644 1104.25 321.6C1106.3 319.644 1107.85 316.844 1108.92 313.2C1109.99 309.556 1110.57 305.067 1110.65 299.733V288.267L1109.32 290.4C1108.43 291.822 1107.05 293.556 1105.19 295.6C1103.41 297.556 1101.37 299.556 1099.05 301.6C1096.74 303.556 1093.9 305.244 1090.52 306.667C1087.23 308.089 1083.85 308.8 1080.39 308.8C1067.14 308.8 1057.81 305.111 1052.39 297.733C1046.97 290.267 1044.25 277.733 1044.25 260.133V212.8L1039.45 208V192.667H1087.99V268.533C1087.99 272.622 1088.61 275.644 1089.85 277.6C1091.19 279.467 1093.81 280.4 1097.72 280.4C1098.88 280.4 1100.03 280.222 1101.19 279.867C1102.34 279.422 1103.45 278.844 1104.52 278.133C1105.68 277.422 1106.88 276.533 1108.12 275.467V212.8L1100.79 208V192.667H1151.59V290.4C1151.59 310.044 1147.41 325.2 1139.05 335.867C1130.7 346.533 1117.77 351.867 1100.25 351.867Z" fill="#F5F3FF"/>
</g>
<ellipse cx="226.5" cy="224" rx="226.5" ry="196" fill="#F5F3FF"/>
<path d="M62.3878 454.916C59.2362 456.482 55.7441 453.508 56.7879 450.148L86.5408 354.355C87.3923 351.613 90.7687 350.635 92.9542 352.496L153.031 403.655C155.217 405.516 154.788 409.006 152.218 410.283L62.3878 454.916Z" fill="#F5F3FF"/>
<path d="M110.198 283.085C190.521 -11.2513 251.407 500.292 338.87 178.423" stroke="#7034F6" stroke-width="25" stroke-linecap="round"/>
<defs>
<filter id="filter0_d_3_5" x="521.933" y="130.333" width="634.654" height="230.533" filterUnits="userSpaceOnUse" color-interpolation-filters="sRGB">
<feFlood flood-opacity="0" result="BackgroundImageFix"/>
<feColorMatrix in="SourceAlpha" type="matrix" values="0 0 0 0 0 0 0 0 0 0 0 0 0 0 0 0 0 0 127 0" result="hardAlpha"/>
<feMorphology radius="1" operator="dilate" in="SourceAlpha" result="effect1_dropShadow_3_5"/>
<feOffset dy="4"/>
<feGaussianBlur stdDeviation="2"/>
<feComposite in2="hardAlpha" operator="out"/>
<feColorMatrix type="matrix" values="0 0 0 0 0 0 0 0 0 0 0 0 0 0 0 0 0 0 0.25 0"/>
<feBlend mode="normal" in2="BackgroundImageFix" result="effect1_dropShadow_3_5"/>
<feBlend mode="normal" in="SourceGraphic" in2="effect1_dropShadow_3_5" result="shape"/>
</filter>
</defs>
</svg>
